<svg width="302" height="151" viewBox="0 0 302 151" fill="none" xmlns="http://www.w3.org/2000/svg">
<g filter="url(#filter0_d_2071_52)">
<path d="M55.9204 125.658C52.5881 132.883 59.5832 140.562 67.0869 137.915L153.422 107.462C162.966 104.095 160.549 89.9744 150.428 89.9744H78.1379C74.6265 89.9744 71.4357 92.0165 69.9652 95.2051L55.9204 125.658Z" fill="#6F7CAD"/>
<path d="M4 30C4 13.4315 17.4315 0 34 0H268C284.569 0 298 13.4315 298 30V76.3333C298 92.9019 284.569 106.333 268 106.333H34C17.4315 106.333 4 92.9019 4 76.3333V30Z" fill="#6F7CAD"/>
</g>
<defs>
<filter id="filter0_d_2071_52" x="0" y="0" width="302" height="150.449" filterUnits="userSpaceOnUse" color-interpolation-filters="sRGB">
<feFlood flood-opacity="0" result="BackgroundImageFix"/>
<feColorMatrix in="SourceAlpha" type="matrix" values="0 0 0 0 0 0 0 0 0 0 0 0 0 0 0 0 0 0 127 0" result="hardAlpha"/>
<feOffset dy="8"/>
<feGaussianBlur stdDeviation="2"/>
<feComposite in2="hardAlpha" operator="out"/>
<feColorMatrix type="matrix" values="0 0 0 0 0 0 0 0 0 0 0 0 0 0 0 0 0 0 0.25 0"/>
<feBlend mode="normal" in2="BackgroundImageFix" result="effect1_dropShadow_2071_52"/>
<feBlend mode="normal" in="SourceGraphic" in2="effect1_dropShadow_2071_52" result="shape"/>
</filter>
</defs>
</svg>
