<svg width="48" height="47" viewBox="0 0 48 47" fill="none" xmlns="http://www.w3.org/2000/svg">
<g filter="url(#filter0_i_7_10)">
<path fill-rule="evenodd" clip-rule="evenodd" d="M26.9595 36.9933L36.7353 29.8142C38.7877 28.3069 40 25.9126 40 23.3662V9.83335C40 8.72878 39.1046 7.83334 38 7.83334H10C8.89543 7.83334 8 8.72877 8 9.83334V23.3662C8 25.9126 9.21228 28.3069 11.2647 29.8142L21.0405 36.9933C22.8015 38.2866 25.1985 38.2866 26.9595 36.9933ZM20 19.5833C20 20.6649 19.1046 21.5417 18 21.5417C16.8954 21.5417 16 20.6649 16 19.5833C16 18.5018 16.8954 17.625 18 17.625C19.1046 17.625 20 18.5018 20 19.5833ZM26 19.5833C26 20.6649 25.1046 21.5417 24 21.5417C22.8954 21.5417 22 20.6649 22 19.5833C22 18.5018 22.8954 17.625 24 17.625C25.1046 17.625 26 18.5018 26 19.5833ZM30 21.5417C31.1046 21.5417 32 20.6649 32 19.5833C32 18.5018 31.1046 17.625 30 17.625C28.8954 17.625 28 18.5018 28 19.5833C28 20.6649 28.8954 21.5417 30 21.5417Z" fill="#3961FF"/>
</g>
<defs>
<filter id="filter0_i_7_10" x="0" y="0" width="48" height="51" filterUnits="userSpaceOnUse" color-interpolation-filters="sRGB">
<feFlood flood-opacity="0" result="BackgroundImageFix"/>
<feBlend mode="normal" in="SourceGraphic" in2="BackgroundImageFix" result="shape"/>
<feColorMatrix in="SourceAlpha" type="matrix" values="0 0 0 0 0 0 0 0 0 0 0 0 0 0 0 0 0 0 127 0" result="hardAlpha"/>
<feOffset dy="4"/>
<feGaussianBlur stdDeviation="2"/>
<feComposite in2="hardAlpha" operator="arithmetic" k2="-1" k3="1"/>
<feColorMatrix type="matrix" values="0 0 0 0 0 0 0 0 0 0 0 0 0 0 0 0 0 0 0.25 0"/>
<feBlend mode="normal" in2="shape" result="effect1_innerShadow_7_10"/>
</filter>
</defs>
</svg>
