<svg width="52" height="52" viewBox="0 0 52 52" fill="none" xmlns="http://www.w3.org/2000/svg">
<path d="M26.3163 35.958C26.5233 36.1579 26.6883 36.3969 26.8019 36.6613C26.9154 36.9256 26.9752 37.2099 26.9777 37.4976C26.9802 37.7853 26.9254 38.0706 26.8164 38.3369C26.7075 38.6032 26.5466 38.8451 26.3432 39.0485C26.1397 39.252 25.8978 39.4128 25.6316 39.5218C25.3653 39.6307 25.08 39.6855 24.7923 39.683C24.5046 39.6805 24.2203 39.6208 23.956 39.5072C23.6916 39.3937 23.4525 39.2286 23.2527 39.0217L20.189 35.958L14.0617 42.0875C14.4679 42.494 14.6961 43.0453 14.6959 43.6201C14.6956 44.1948 14.4671 44.746 14.0606 45.1522C13.654 45.5585 13.1027 45.7866 12.528 45.7864C11.9532 45.7862 11.4021 45.5577 10.9958 45.1512L7.93216 42.0875C7.52561 41.6812 7.29709 41.1301 7.29689 40.5553C7.29669 39.9806 7.52481 39.4293 7.93108 39.0227C8.33735 38.6162 8.88848 38.3877 9.46323 38.3875C10.038 38.3873 10.5893 38.6154 10.9958 39.0217L17.1253 32.8943L14.0617 29.8307C13.667 29.422 13.4486 28.8747 13.4535 28.3066C13.4585 27.7385 13.6863 27.1951 14.0881 26.7934C14.4898 26.3917 15.0332 26.1638 15.6013 26.1589C16.1694 26.1539 16.7167 26.3723 17.1253 26.767L26.3163 35.958ZM27.8503 34.4262L18.655 25.233L37.0413 6.84883L44.7027 8.38066L46.2345 16.042L27.8503 34.4262Z" fill="white"/>
</svg>
