<svg width="44" height="44" viewBox="0 0 44 44" fill="none" xmlns="http://www.w3.org/2000/svg">
<g filter="url(#filter0_i_12_29)">
<path d="M19.0064 7.44576C17.723 8.37297 9.16666 14.9564 9.16666 25.6659C9.16666 27.3512 9.49861 29.02 10.1435 30.577C10.7885 32.134 11.7338 33.5488 12.9255 34.7405C14.1171 35.9321 15.5319 36.8774 17.0889 37.5224C18.6009 38.1487 20.2183 38.4798 21.8539 38.4984C17.8713 38.4206 14.6667 35.1678 14.6667 31.1665C14.6667 30.8044 14.6929 30.4484 14.7436 30.1003C14.7458 30.0796 14.7484 30.0588 14.7515 30.038C15.3664 25.906 19.168 22.398 21.0065 20.9186C21.5939 20.4459 22.4063 20.4459 22.9938 20.9186C24.8321 22.3981 28.6336 25.906 29.2485 30.038C29.2516 30.0588 29.2542 30.0796 29.2564 30.1004C29.3071 30.4485 29.3333 30.8044 29.3333 31.1665C29.3333 35.1678 26.1287 38.4206 22.1461 38.4984C23.7817 38.4798 25.3991 38.1487 26.9111 37.5224C28.4681 36.8774 29.8828 35.9321 31.0745 34.7405C32.2662 33.5488 33.2115 32.134 33.8564 30.577C34.4795 29.0728 34.8105 27.4642 34.8322 25.8371C34.8329 25.8161 34.8333 25.795 34.8333 25.7738L34.8332 25.7158L34.8333 25.6661C34.785 17.8915 29.5247 13.6484 28.5658 12.9393C28.4759 12.8728 28.3564 12.8736 28.2665 12.9401C27.8819 13.2245 26.8109 14.0734 25.6606 15.4867C25.5294 15.6479 25.2716 15.6171 25.1828 15.4292C23.0218 10.8558 20.0279 8.07999 19.3207 7.46354C19.2295 7.38401 19.1045 7.37488 19.0064 7.44576Z" fill="#E6B000"/>
</g>
<defs>
<filter id="filter0_i_12_29" x="0" y="0" width="44" height="48" filterUnits="userSpaceOnUse" color-interpolation-filters="sRGB">
<feFlood flood-opacity="0" result="BackgroundImageFix"/>
<feBlend mode="normal" in="SourceGraphic" in2="BackgroundImageFix" result="shape"/>
<feColorMatrix in="SourceAlpha" type="matrix" values="0 0 0 0 0 0 0 0 0 0 0 0 0 0 0 0 0 0 127 0" result="hardAlpha"/>
<feOffset dy="4"/>
<feGaussianBlur stdDeviation="2"/>
<feComposite in2="hardAlpha" operator="arithmetic" k2="-1" k3="1"/>
<feColorMatrix type="matrix" values="0 0 0 0 0 0 0 0 0 0 0 0 0 0 0 0 0 0 0.25 0"/>
<feBlend mode="normal" in2="shape" result="effect1_innerShadow_12_29"/>
</filter>
</defs>
</svg>
